<mxfile host="app.diagrams.net" modified="2021-05-24T06:29:33.764Z" agent="5.0 (Windows NT 10.0; Win64; x64) AppleWebKit/537.36 (KHTML, like Gecko) Chrome/90.0.4430.212 Safari/537.36" etag="UNAwE-8b-wvGIvpVh4J-" version="14.6.13" type="github">
  <diagram id="1JDHUeAZYmFqjiWe7yXu" name="Page-1">
    <mxGraphModel dx="1182" dy="742" grid="1" gridSize="10" guides="1" tooltips="1" connect="1" arrows="1" fold="1" page="1" pageScale="1" pageWidth="827" pageHeight="1169" math="0" shadow="0">
      <root>
        <mxCell id="0" />
        <mxCell id="1" parent="0" />
        <mxCell id="Pc33NBHfCTbqmkPrSyl--11" style="edgeStyle=orthogonalEdgeStyle;rounded=0;orthogonalLoop=1;jettySize=auto;html=1;entryX=0;entryY=0.5;entryDx=0;entryDy=0;fillColor=#76608a;strokeColor=#432D57;" parent="1" source="Pc33NBHfCTbqmkPrSyl--4" target="Pc33NBHfCTbqmkPrSyl--6" edge="1">
          <mxGeometry relative="1" as="geometry" />
        </mxCell>
        <mxCell id="Pc33NBHfCTbqmkPrSyl--4" value="1" style="rounded=0;whiteSpace=wrap;html=1;fillColor=#76608a;strokeColor=#432D57;fontColor=#ffffff;" parent="1" vertex="1">
          <mxGeometry x="80" y="200" width="60" height="40" as="geometry" />
        </mxCell>
        <mxCell id="Pc33NBHfCTbqmkPrSyl--12" style="edgeStyle=orthogonalEdgeStyle;rounded=0;orthogonalLoop=1;jettySize=auto;html=1;entryX=0;entryY=0.5;entryDx=0;entryDy=0;fillColor=#76608a;strokeColor=#432D57;" parent="1" source="Pc33NBHfCTbqmkPrSyl--6" target="Pc33NBHfCTbqmkPrSyl--8" edge="1">
          <mxGeometry relative="1" as="geometry" />
        </mxCell>
        <mxCell id="Pc33NBHfCTbqmkPrSyl--6" value="3" style="rounded=0;whiteSpace=wrap;html=1;fillColor=#76608a;strokeColor=#432D57;fontColor=#ffffff;" parent="1" vertex="1">
          <mxGeometry x="170" y="200" width="60" height="40" as="geometry" />
        </mxCell>
        <mxCell id="Pc33NBHfCTbqmkPrSyl--7" value="9" style="rounded=0;whiteSpace=wrap;html=1;fillColor=#76608a;strokeColor=#432D57;fontColor=#ffffff;" parent="1" vertex="1">
          <mxGeometry x="560" y="200" width="60" height="40" as="geometry" />
        </mxCell>
        <mxCell id="Pc33NBHfCTbqmkPrSyl--13" style="edgeStyle=orthogonalEdgeStyle;rounded=0;orthogonalLoop=1;jettySize=auto;html=1;entryX=0;entryY=0.5;entryDx=0;entryDy=0;fillColor=#76608a;strokeColor=#432D57;" parent="1" source="Pc33NBHfCTbqmkPrSyl--8" target="Pc33NBHfCTbqmkPrSyl--9" edge="1">
          <mxGeometry relative="1" as="geometry" />
        </mxCell>
        <mxCell id="Pc33NBHfCTbqmkPrSyl--8" value="4" style="rounded=0;whiteSpace=wrap;html=1;fillColor=#76608a;strokeColor=#432D57;fontColor=#ffffff;" parent="1" vertex="1">
          <mxGeometry x="260" y="200" width="60" height="40" as="geometry" />
        </mxCell>
        <mxCell id="Pc33NBHfCTbqmkPrSyl--14" style="edgeStyle=orthogonalEdgeStyle;rounded=0;orthogonalLoop=1;jettySize=auto;html=1;exitX=1;exitY=0.5;exitDx=0;exitDy=0;entryX=0;entryY=0.5;entryDx=0;entryDy=0;fillColor=#76608a;strokeColor=#432D57;" parent="1" source="Pc33NBHfCTbqmkPrSyl--9" target="Pc33NBHfCTbqmkPrSyl--10" edge="1">
          <mxGeometry relative="1" as="geometry" />
        </mxCell>
        <mxCell id="Pc33NBHfCTbqmkPrSyl--9" value="7" style="rounded=0;whiteSpace=wrap;html=1;fillColor=#76608a;strokeColor=#432D57;fontColor=#ffffff;" parent="1" vertex="1">
          <mxGeometry x="360" y="200" width="60" height="40" as="geometry" />
        </mxCell>
        <mxCell id="Pc33NBHfCTbqmkPrSyl--15" style="edgeStyle=orthogonalEdgeStyle;rounded=0;orthogonalLoop=1;jettySize=auto;html=1;exitX=1;exitY=0.5;exitDx=0;exitDy=0;entryX=0;entryY=0.5;entryDx=0;entryDy=0;fillColor=#76608a;strokeColor=#432D57;" parent="1" source="Pc33NBHfCTbqmkPrSyl--10" target="Pc33NBHfCTbqmkPrSyl--7" edge="1">
          <mxGeometry relative="1" as="geometry" />
        </mxCell>
        <mxCell id="Pc33NBHfCTbqmkPrSyl--10" value="8" style="rounded=0;whiteSpace=wrap;html=1;fillColor=#76608a;strokeColor=#432D57;fontColor=#ffffff;" parent="1" vertex="1">
          <mxGeometry x="460" y="200" width="60" height="40" as="geometry" />
        </mxCell>
        <mxCell id="Pc33NBHfCTbqmkPrSyl--16" style="edgeStyle=orthogonalEdgeStyle;rounded=0;orthogonalLoop=1;jettySize=auto;html=1;entryX=0;entryY=0.5;entryDx=0;entryDy=0;fillColor=#76608a;strokeColor=#432D57;" parent="1" source="Pc33NBHfCTbqmkPrSyl--17" target="Pc33NBHfCTbqmkPrSyl--19" edge="1">
          <mxGeometry relative="1" as="geometry" />
        </mxCell>
        <mxCell id="Pc33NBHfCTbqmkPrSyl--17" value="4" style="rounded=0;whiteSpace=wrap;html=1;fillColor=#76608a;strokeColor=#432D57;fontColor=#ffffff;" parent="1" vertex="1">
          <mxGeometry x="80" y="290" width="60" height="40" as="geometry" />
        </mxCell>
        <mxCell id="Pc33NBHfCTbqmkPrSyl--18" style="edgeStyle=orthogonalEdgeStyle;rounded=0;orthogonalLoop=1;jettySize=auto;html=1;entryX=0;entryY=0.5;entryDx=0;entryDy=0;fillColor=#76608a;strokeColor=#432D57;" parent="1" source="Pc33NBHfCTbqmkPrSyl--19" target="Pc33NBHfCTbqmkPrSyl--21" edge="1">
          <mxGeometry relative="1" as="geometry" />
        </mxCell>
        <mxCell id="Pc33NBHfCTbqmkPrSyl--19" value="7" style="rounded=0;whiteSpace=wrap;html=1;fillColor=#76608a;strokeColor=#432D57;fontColor=#ffffff;" parent="1" vertex="1">
          <mxGeometry x="170" y="290" width="60" height="40" as="geometry" />
        </mxCell>
        <mxCell id="Pc33NBHfCTbqmkPrSyl--20" style="edgeStyle=orthogonalEdgeStyle;rounded=0;orthogonalLoop=1;jettySize=auto;html=1;entryX=0;entryY=0.5;entryDx=0;entryDy=0;fillColor=#76608a;strokeColor=#432D57;" parent="1" source="Pc33NBHfCTbqmkPrSyl--21" target="Pc33NBHfCTbqmkPrSyl--22" edge="1">
          <mxGeometry relative="1" as="geometry" />
        </mxCell>
        <mxCell id="Pc33NBHfCTbqmkPrSyl--21" value="8" style="rounded=0;whiteSpace=wrap;html=1;fillColor=#76608a;strokeColor=#432D57;fontColor=#ffffff;" parent="1" vertex="1">
          <mxGeometry x="260" y="290" width="60" height="40" as="geometry" />
        </mxCell>
        <mxCell id="Pc33NBHfCTbqmkPrSyl--22" value="9" style="rounded=0;whiteSpace=wrap;html=1;fillColor=#76608a;strokeColor=#432D57;fontColor=#ffffff;" parent="1" vertex="1">
          <mxGeometry x="360" y="290" width="60" height="40" as="geometry" />
        </mxCell>
        <mxCell id="5RFs4ZsTDTEebcYIlPx7-1" style="edgeStyle=orthogonalEdgeStyle;rounded=0;orthogonalLoop=1;jettySize=auto;html=1;entryX=0;entryY=0.5;entryDx=0;entryDy=0;fillColor=#a20025;strokeColor=#6F0000;" edge="1" parent="1" source="5RFs4ZsTDTEebcYIlPx7-2" target="5RFs4ZsTDTEebcYIlPx7-4">
          <mxGeometry relative="1" as="geometry" />
        </mxCell>
        <mxCell id="5RFs4ZsTDTEebcYIlPx7-2" value="1" style="rounded=0;whiteSpace=wrap;html=1;fillColor=#a20025;strokeColor=#6F0000;fontColor=#ffffff;" vertex="1" parent="1">
          <mxGeometry x="450" y="290" width="60" height="40" as="geometry" />
        </mxCell>
        <mxCell id="5RFs4ZsTDTEebcYIlPx7-3" style="edgeStyle=orthogonalEdgeStyle;rounded=0;orthogonalLoop=1;jettySize=auto;html=1;entryX=0;entryY=0.5;entryDx=0;entryDy=0;fillColor=#a20025;strokeColor=#6F0000;" edge="1" parent="1" source="5RFs4ZsTDTEebcYIlPx7-4" target="5RFs4ZsTDTEebcYIlPx7-7">
          <mxGeometry relative="1" as="geometry" />
        </mxCell>
        <mxCell id="5RFs4ZsTDTEebcYIlPx7-4" value="3" style="rounded=0;whiteSpace=wrap;html=1;fillColor=#a20025;strokeColor=#6F0000;fontColor=#ffffff;" vertex="1" parent="1">
          <mxGeometry x="540" y="290" width="60" height="40" as="geometry" />
        </mxCell>
        <mxCell id="5RFs4ZsTDTEebcYIlPx7-5" value="9" style="rounded=0;whiteSpace=wrap;html=1;fillColor=#a20025;strokeColor=#6F0000;fontColor=#ffffff;" vertex="1" parent="1">
          <mxGeometry x="930" y="290" width="60" height="40" as="geometry" />
        </mxCell>
        <mxCell id="5RFs4ZsTDTEebcYIlPx7-6" style="edgeStyle=orthogonalEdgeStyle;rounded=0;orthogonalLoop=1;jettySize=auto;html=1;entryX=0;entryY=0.5;entryDx=0;entryDy=0;fillColor=#a20025;strokeColor=#6F0000;" edge="1" parent="1" source="5RFs4ZsTDTEebcYIlPx7-7" target="5RFs4ZsTDTEebcYIlPx7-9">
          <mxGeometry relative="1" as="geometry" />
        </mxCell>
        <mxCell id="5RFs4ZsTDTEebcYIlPx7-7" value="4" style="rounded=0;whiteSpace=wrap;html=1;fillColor=#a20025;strokeColor=#6F0000;fontColor=#ffffff;" vertex="1" parent="1">
          <mxGeometry x="630" y="290" width="60" height="40" as="geometry" />
        </mxCell>
        <mxCell id="5RFs4ZsTDTEebcYIlPx7-8" style="edgeStyle=orthogonalEdgeStyle;rounded=0;orthogonalLoop=1;jettySize=auto;html=1;exitX=1;exitY=0.5;exitDx=0;exitDy=0;entryX=0;entryY=0.5;entryDx=0;entryDy=0;fillColor=#a20025;strokeColor=#6F0000;" edge="1" parent="1" source="5RFs4ZsTDTEebcYIlPx7-9" target="5RFs4ZsTDTEebcYIlPx7-11">
          <mxGeometry relative="1" as="geometry" />
        </mxCell>
        <mxCell id="5RFs4ZsTDTEebcYIlPx7-9" value="7" style="rounded=0;whiteSpace=wrap;html=1;fillColor=#a20025;strokeColor=#6F0000;fontColor=#ffffff;" vertex="1" parent="1">
          <mxGeometry x="730" y="290" width="60" height="40" as="geometry" />
        </mxCell>
        <mxCell id="5RFs4ZsTDTEebcYIlPx7-10" style="edgeStyle=orthogonalEdgeStyle;rounded=0;orthogonalLoop=1;jettySize=auto;html=1;exitX=1;exitY=0.5;exitDx=0;exitDy=0;entryX=0;entryY=0.5;entryDx=0;entryDy=0;fillColor=#a20025;strokeColor=#6F0000;" edge="1" parent="1" source="5RFs4ZsTDTEebcYIlPx7-11" target="5RFs4ZsTDTEebcYIlPx7-5">
          <mxGeometry relative="1" as="geometry" />
        </mxCell>
        <mxCell id="5RFs4ZsTDTEebcYIlPx7-11" value="8" style="rounded=0;whiteSpace=wrap;html=1;fillColor=#a20025;strokeColor=#6F0000;fontColor=#ffffff;" vertex="1" parent="1">
          <mxGeometry x="830" y="290" width="60" height="40" as="geometry" />
        </mxCell>
        <mxCell id="5RFs4ZsTDTEebcYIlPx7-12" style="edgeStyle=orthogonalEdgeStyle;rounded=0;orthogonalLoop=1;jettySize=auto;html=1;entryX=0;entryY=0.5;entryDx=0;entryDy=0;fillColor=#1ba1e2;strokeColor=#006EAF;" edge="1" parent="1" source="5RFs4ZsTDTEebcYIlPx7-13" target="5RFs4ZsTDTEebcYIlPx7-15">
          <mxGeometry relative="1" as="geometry" />
        </mxCell>
        <mxCell id="5RFs4ZsTDTEebcYIlPx7-13" value="4" style="rounded=0;whiteSpace=wrap;html=1;fillColor=#1ba1e2;strokeColor=#006EAF;fontColor=#ffffff;" vertex="1" parent="1">
          <mxGeometry x="640" y="200" width="60" height="40" as="geometry" />
        </mxCell>
        <mxCell id="5RFs4ZsTDTEebcYIlPx7-14" style="edgeStyle=orthogonalEdgeStyle;rounded=0;orthogonalLoop=1;jettySize=auto;html=1;entryX=0;entryY=0.5;entryDx=0;entryDy=0;fillColor=#1ba1e2;strokeColor=#006EAF;" edge="1" parent="1" source="5RFs4ZsTDTEebcYIlPx7-15" target="5RFs4ZsTDTEebcYIlPx7-17">
          <mxGeometry relative="1" as="geometry" />
        </mxCell>
        <mxCell id="5RFs4ZsTDTEebcYIlPx7-15" value="7" style="rounded=0;whiteSpace=wrap;html=1;fillColor=#1ba1e2;strokeColor=#006EAF;fontColor=#ffffff;" vertex="1" parent="1">
          <mxGeometry x="730" y="200" width="60" height="40" as="geometry" />
        </mxCell>
        <mxCell id="5RFs4ZsTDTEebcYIlPx7-16" style="edgeStyle=orthogonalEdgeStyle;rounded=0;orthogonalLoop=1;jettySize=auto;html=1;entryX=0;entryY=0.5;entryDx=0;entryDy=0;fillColor=#1ba1e2;strokeColor=#006EAF;" edge="1" parent="1" source="5RFs4ZsTDTEebcYIlPx7-17" target="5RFs4ZsTDTEebcYIlPx7-18">
          <mxGeometry relative="1" as="geometry" />
        </mxCell>
        <mxCell id="5RFs4ZsTDTEebcYIlPx7-17" value="8" style="rounded=0;whiteSpace=wrap;html=1;fillColor=#1ba1e2;strokeColor=#006EAF;fontColor=#ffffff;" vertex="1" parent="1">
          <mxGeometry x="820" y="200" width="60" height="40" as="geometry" />
        </mxCell>
        <mxCell id="5RFs4ZsTDTEebcYIlPx7-18" value="9" style="rounded=0;whiteSpace=wrap;html=1;fillColor=#1ba1e2;strokeColor=#006EAF;fontColor=#ffffff;" vertex="1" parent="1">
          <mxGeometry x="920" y="200" width="60" height="40" as="geometry" />
        </mxCell>
        <mxCell id="5RFs4ZsTDTEebcYIlPx7-19" value="" style="endArrow=none;dashed=1;html=1;dashPattern=1 3;strokeWidth=2;strokeColor=#FF0000;" edge="1" parent="1">
          <mxGeometry width="50" height="50" relative="1" as="geometry">
            <mxPoint x="630" y="260" as="sourcePoint" />
            <mxPoint x="630" y="170" as="targetPoint" />
          </mxGeometry>
        </mxCell>
        <mxCell id="5RFs4ZsTDTEebcYIlPx7-21" value="" style="endArrow=none;dashed=1;html=1;dashPattern=1 3;strokeWidth=2;strokeColor=#FF0000;" edge="1" parent="1">
          <mxGeometry width="50" height="50" relative="1" as="geometry">
            <mxPoint x="440" y="355" as="sourcePoint" />
            <mxPoint x="440" y="265" as="targetPoint" />
          </mxGeometry>
        </mxCell>
        <mxCell id="5RFs4ZsTDTEebcYIlPx7-23" value="" style="endArrow=classic;html=1;entryX=0.5;entryY=1;entryDx=0;entryDy=0;" edge="1" parent="1" target="5RFs4ZsTDTEebcYIlPx7-13">
          <mxGeometry width="50" height="50" relative="1" as="geometry">
            <mxPoint x="400" y="290" as="sourcePoint" />
            <mxPoint x="450" y="240" as="targetPoint" />
          </mxGeometry>
        </mxCell>
        <mxCell id="5RFs4ZsTDTEebcYIlPx7-24" value="" style="endArrow=classic;html=1;" edge="1" parent="1">
          <mxGeometry width="50" height="50" relative="1" as="geometry">
            <mxPoint x="590" y="290" as="sourcePoint" />
            <mxPoint x="500" y="240" as="targetPoint" />
          </mxGeometry>
        </mxCell>
      </root>
    </mxGraphModel>
  </diagram>
</mxfile>
